<svg xmlns="http://www.w3.org/2000/svg" width="16" height="16" style="shape-rendering:geometricprecision;text-rendering:geometricprecision;image-rendering:optimizequality;fill-rule:evenodd;clip-rule:evenodd"><path style="opacity:.81" fill="#9cb53c" d="M5.5-.5h4c.333 1 1 1.667 2 2 .762 1.762 2.096 2.762 4 3v4c-1.713 1.135-2.38 2.802-2 5h-12c.38-2.198-.287-3.865-2-5v-6c2.387-.412 4.387-1.412 6-3Z"/><path style="opacity:.455" fill="#111208" d="M11.5 1.5c1.459-.067 2.792.266 4 1v2c-1.904-.238-3.238-1.238-4-3Z"/><path style="opacity:1" fill="#d4deae" d="M5.5 4.5h4v3h-4v-3Z"/><path style="opacity:.056" fill="#f8f8f8" d="M1.5 13.5h12v2h-11l-1-2Z"/></svg>