<svg aria-hidden="true" style="width:0;height:0;position:absolute;overflow:hidden" xmlns="http://www.w3.org/2000/svg"><defs><symbol id="icon-burger" viewBox="0 0 32 32"><path stroke-linejoin="round" stroke-linecap="round" stroke-width="2" d="M28 13.333H4M28 8H4M28 18.667H4M28 24H4"/></symbol><symbol id="icon-trash" viewBox="0 0 32 32" fill="none"><path d="M9 22a1 1 0 1 0 0-2 1 1 0 0 0 0 2ZM20 22a1 1 0 1 0 0-2 1 1 0 0 0 0 2Z" stroke-width="2" stroke-linecap="round" stroke-linejoin="round"/><path d="M1 1h4l2.68 13.39a2 2 0 0 0 2 1.61h9.72a2 2 0 0 0 2-1.61L23 6H6" stroke-width="1.8" stroke-linecap="round" stroke-linejoin="round"/></symbol><symbol id="icon-close" viewBox="0 0 32 32"><path fill="none" stroke="#f8f8f8" style="stroke:var(--color1,#f8f8f8)" stroke-linejoin="round" stroke-linecap="round" stroke-width="2" d="M24 8 8 24M8 8l16 16"/></symbol><symbol id="icon-search" viewBox="0 0 32 32"><path d="M30.565 28.436 25 22.916a13.5 13.5 0 1 0-2.086 2.086l5.52 5.52a1.483 1.483 0 0 0 1.065.443 1.504 1.504 0 0 0 1.065-.443 1.503 1.503 0 0 0 0-2.085zM14.5 25.001a10.494 10.494 0 0 1-9.7-6.482A10.5 10.5 0 1 1 14.501 25z"/></symbol></defs></svg><svg aria-hidden="true" style="width:0;height:0;position:absolute;overflow:hidden" xmlns="http://www.w3.org/2000/svg"><defs><symbol id="icon-menu" viewBox="0 0 32 33"><path d="M28 13.833H4M28 8.5H4M28 19.167H4M28 24.5H4" stroke-width="2" stroke-linecap="round" stroke-linejoin="round"/></symbol><symbol id="icon-x" viewBox="0 0 32 32"><path stroke-linejoin="round" stroke-linecap="round" stroke-width="2.667" d="M24 8 8 24M8 8l16 16"/></symbol><symbol id="shopping-icon" viewBox="0 0 22 22"><path d="M4 13h13.136c1.013 0 1.52 0 1.922-.189a2 2 0 0 0 .858-.768c.232-.38.288-.883.4-1.89l.585-5.265c.035-.307.052-.46.002-.58a.5.5 0 0 0-.22-.246C20.57 4 20.416 4 20.106 4H3.5M1 1h1.248c.265 0 .397 0 .5.05a.5.5 0 0 1 .217.204c.057.1.065.232.082.496l.906 14.5c.017.264.025.396.082.496a.5.5 0 0 0 .216.204c.104.05.236.05.5.05H18M6.5 20.5h.01m8.99 0h.01M7 20.5a.5.5 0 1 1-1 0 .5.5 0 0 1 1 0Zm9 0a.5.5 0 1 1-1 0 .5.5 0 0 1 1 0Z" stroke-width="1.5" stroke-linecap="round" stroke-linejoin="round"/></symbol></defs></svg>