<svg aria-hidden="true" style="width:0;height:0;position:absolute;overflow:hidden" xmlns="http://www.w3.org/2000/svg"><defs><symbol id="icon-burger" viewBox="0 0 32 32"><path stroke-linejoin="round" stroke-linecap="round" stroke-width="2" d="M28 13.333H4M28 8H4M28 18.667H4M28 24H4"/></symbol><symbol id="icon-trash" viewBox="0 0 32 32" fill="none"><path d="M9 22a1 1 0 1 0 0-2 1 1 0 0 0 0 2ZM20 22a1 1 0 1 0 0-2 1 1 0 0 0 0 2Z" stroke-width="2" stroke-linecap="round" stroke-linejoin="round"/><path d="M1 1h4l2.68 13.39a2 2 0 0 0 2 1.61h9.72a2 2 0 0 0 2-1.61L23 6H6" stroke-width="1.8" stroke-linecap="round" stroke-linejoin="round"/></symbol><symbol id="icon-close" viewBox="0 0 32 32"><path fill="none" stroke="#f8f8f8" style="stroke:var(--color1,#f8f8f8)" stroke-linejoin="round" stroke-linecap="round" stroke-width="2" d="M24 8 8 24M8 8l16 16"/></symbol><symbol id="icon-search" viewBox="0 0 32 32"><path d="M30.565 28.436 25 22.916a13.5 13.5 0 1 0-2.086 2.086l5.52 5.52a1.483 1.483 0 0 0 1.065.443 1.504 1.504 0 0 0 1.065-.443 1.503 1.503 0 0 0 0-2.085zM14.5 25.001a10.494 10.494 0 0 1-9.7-6.482A10.5 10.5 0 1 1 14.501 25z"/></symbol><symbol id="icon-youtube" viewBox="0 0 32 32"><path fill="none" stroke-linejoin="round" stroke-linecap="round" stroke-width="1.684" d="M30.053 8.56a3.703 3.703 0 0 0-2.587-2.667c-2.293-.56-11.467-.56-11.467-.56s-9.173 0-11.467.613c-.628.178-1.197.518-1.652.986s-.777 1.048-.935 1.681a38.606 38.606 0 0 0-.613 7.053c-.015 2.383.19 4.762.613 7.107.175.613.504 1.171.958 1.619s1.014.772 1.629.941c2.293.613 11.467.613 11.467.613s9.173 0 11.467-.613c.628-.178 1.197-.518 1.652-.986s.777-1.048.935-1.681a38.66 38.66 0 0 0 .613-7 38.663 38.663 0 0 0-.613-7.107z"/><path fill="none" stroke-linejoin="round" stroke-linecap="round" stroke-width="1.684" d="m13 20.027 7.667-4.36L13 11.307v8.72z"/></symbol><symbol id="icon-search" viewBox="0 0 32 32"><path d="M28.947 27.054 24 22.147a11.999 11.999 0 0 0-1.353-16.445 12 12 0 1 0-.5 18.298l4.907 4.907a1.334 1.334 0 0 0 1.894 0 1.336 1.336 0 0 0 0-1.854zm-14.28-3.053a9.33 9.33 0 0 1-8.623-5.762A9.339 9.339 0 0 1 8.067 8.067a9.331 9.331 0 0 1 14.36 1.415 9.33 9.33 0 0 1-1.161 11.785 9.332 9.332 0 0 1-6.6 2.734z"/></symbol><symbol id="star" viewBox="0 0 14 14"><path d="M6.049 1.427c.3-.921 1.603-.921 1.902 0l.845 2.6a1 1 0 0 0 .951.692h2.735c.969 0 1.371 1.24.588 1.809l-2.213 1.607a1 1 0 0 0-.363 1.118l.845 2.601c.3.921-.755 1.688-1.539 1.118l-2.212-1.607a1 1 0 0 0-1.176 0L4.2 12.972c-.784.57-1.838-.197-1.539-1.118l.845-2.6a1 1 0 0 0-.363-1.119L.93 6.528c-.783-.57-.38-1.81.588-1.81h2.735a1 1 0 0 0 .95-.69l.846-2.6Z"/></symbol><symbol id="icon-reset-close" viewBox="0 0 32 32"><path fill="none" stroke="#9bb537" style="stroke:var(--color1,#9bb537)" stroke-linejoin="round" stroke-linecap="round" stroke-width="3" d="M24 8 8 24M8 8l16 16"/></symbol><symbol id="icon-point-up" viewBox="0 0 32 32"><path d="M30 19v-5a3.004 3.004 0 0 0-4.472-2.614 3 3 0 0 0-4.528-.62 2.987 2.987 0 0 0-3-.595V3c0-1.654-1.346-3-3-3s-3 1.346-3 3v12.334l-5.501-2.932A3.004 3.004 0 0 0 2 15.001c0 .824.327 1.592.922 2.163l.023.022 7.474 6.815H9a1 1 0 0 0-1 1v6a1 1 0 0 0 1 1h20a1 1 0 0 0 1-1v-6a1 1 0 0 0-1-1h-1.382l2.276-4.553c.069-.139.106-.292.106-.447zm-2 8a1 1 0 1 1-2 0 1 1 0 0 1 2 0zm0-8.236L25.382 24H13.387l-9.088-8.286a1.002 1.002 0 0 1 1.18-1.592c.017.01.033.02.051.029l7 3.732a1 1 0 0 0 1.47-.882v-14c0-.551.449-1 1-1s1 .449 1 1v10a1 1 0 0 0 2 0c0-.551.449-1 1-1s1 .449 1 1a1 1 0 0 0 2 0c0-.551.449-1 1-1s1 .449 1 1v1a1 1 0 0 0 2 0c0-.551.449-1 1-1s1 .449 1 1v4.764z"/></symbol></defs></svg>