<?xml version="1.0" encoding="UTF-8"?>
<!DOCTYPE svg PUBLIC "-//W3C//DTD SVG 1.1//EN" "http://www.w3.org/Graphics/SVG/1.1/DTD/svg11.dtd">
<svg xmlns="http://www.w3.org/2000/svg" version="1.1" width="16px" height="16px" style="shape-rendering:geometricPrecision; text-rendering:geometricPrecision; image-rendering:optimizeQuality; fill-rule:evenodd; clip-rule:evenodd" xmlns:xlink="http://www.w3.org/1999/xlink">
<g><path style="opacity:0.81" fill="#9cb53c" d="M 5.5,-0.5 C 6.83333,-0.5 8.16667,-0.5 9.5,-0.5C 9.83333,0.5 10.5,1.16667 11.5,1.5C 12.2623,3.26242 13.5956,4.26242 15.5,4.5C 15.5,5.83333 15.5,7.16667 15.5,8.5C 13.7868,9.63535 13.1201,11.302 13.5,13.5C 9.5,13.5 5.5,13.5 1.5,13.5C 1.87988,11.302 1.21321,9.63535 -0.5,8.5C -0.5,6.5 -0.5,4.5 -0.5,2.5C 1.88669,2.0879 3.88669,1.0879 5.5,-0.5 Z"/></g>
<g><path style="opacity:0.455" fill="#111208" d="M 11.5,1.5 C 12.9587,1.43255 14.2921,1.76589 15.5,2.5C 15.5,3.16667 15.5,3.83333 15.5,4.5C 13.5956,4.26242 12.2623,3.26242 11.5,1.5 Z"/></g>
<g><path style="opacity:1" fill="#d4deae" d="M 5.5,4.5 C 6.83333,4.5 8.16667,4.5 9.5,4.5C 9.5,5.5 9.5,6.5 9.5,7.5C 8.16667,7.5 6.83333,7.5 5.5,7.5C 5.5,6.5 5.5,5.5 5.5,4.5 Z"/></g>
<g><path style="opacity:0.056" fill="#f8f8f8" d="M 1.5,13.5 C 5.5,13.5 9.5,13.5 13.5,13.5C 13.5,14.1667 13.5,14.8333 13.5,15.5C 9.83333,15.5 6.16667,15.5 2.5,15.5C 2.16667,14.8333 1.83333,14.1667 1.5,13.5 Z"/></g>
</svg>
